<svg width="392" height="514" xmlns="http://www.w3.org/2000/svg">

 <g>
  <title>background</title>
  <rect fill="none" id="canvas_background" height="516" width="394" y="-1" x="-1"/>
 </g>
 <g>
  <title>Layer 1</title>
  <g id="svg_1" fill="#ff0059">
   <path id="svg_2" d="m286,180.26l67.5,-12.008l35.887,-37.684c-1.1484,-2.3906 -2.793,-4.5273 -5.0664,-6.0469l-180,-121c-2.5195,-1.6836 -5.418,-2.5273 -8.3203,-2.5273l-15,91.004l15,40.254l31.25,34.746l58.7497,13.2622z"/>
   <path id="svg_3" d="m106,180.26l-41.25,-42.008l-62.137,-7.6836c-0.95703,1.9961 -1.6133,4.1562 -1.6133,6.4336l0,240c0,2.2812 0.65625,4.4414 1.6133,6.4375l69.637,-8.9375l33.75,-40.754l20,-81.742l-20,-71.746z"/>
   <path id="svg_4" d="m286,333.75l-52.5,9.5078l-37.5,38.492l-15,62.504l15,68.75c2.9023,0 5.8008,-0.83594 8.3203,-2.5195l180,-121c2.2734,-1.5156 3.918,-3.6523 5.0664,-6.043l-43.387,-41.434l-59.9997,-8.2573z"/>
  </g>
  <path id="svg_5" fill="#ff5e95" d="m196,132.26l0,-131.26c-2.8984,0 -5.8008,0.84375 -8.3164,2.5273l-180,121c-2.2734,1.5195 -3.918,3.6562 -5.0664,6.0469l103.39,49.691l89.9928,-48.0052z"/>
  <path id="svg_6" fill="#e50048" d="m286,333.75l103.39,49.691c0.95703,-1.9961 1.6133,-4.1562 1.6133,-6.4375l0,-240c0,-2.2773 -0.65625,-4.4375 -1.6133,-6.4336l-103.39,49.691l0,153.4891z"/>
  <path id="svg_7" fill="#ff5e95" d="m106,333.75l-103.39,49.691c1.1484,2.3906 2.793,4.5273 5.0664,6.0469l180,121c2.5195,1.6836 5.418,2.5195 8.3164,2.5195l0,-131.25l-89.9928,-48.0074z"/>
  <path id="svg_8" fill="#ffa2c3" d="m286,180.2l0,153.6l-90,48l-89.996,-48l0,-153.6l89.996,-48l90,48z"/>
  <path id="svg_9" fill="#ff5e95" d="m286,180.2l0,153.6l-90,48l0,-249.6l90,48z"/>
 </g>
</svg>